# xmcd
#
# Track frame offsets: 
#        150
#        13415
#        26317
#        37052
#        50092
#        63432
#        76170
#        89440
#        102247
#        115485
#        132120
#        144640
#        158285
#        172057
#        184882
#        196730
#        207805
#        222047
#        236305
#        249852
#
# Disc length: 3528 seconds
#
# Revision: 1
# Processed by: cddbd v1.5.2PL0 Copyright (c) Steve Scherf et al.
# Submitted via: ExactAudioCopyFreeDBPlugin 1.0
#
DISCID=0d0dc614
DTITLE=Charles Brown - The Complete Aladdin Recordings of Charles Brow
DTITLE=n [Mosaic box set]
DYEAR=1994
DGENRE=Rhythm and Blues
TTITLE0=In the Evening (When the Sun Goes Down)
TTITLE1=It's Nothing
TTITLE2=Trouble Blues
TTITLE3=I Don't Care Who Knows
TTITLE4=When You're Alone
TTITLE5=Please Be Kind
TTITLE6=A Long Time
TTITLE7=My Interpretation of Love
TTITLE8=You Gave Me Everything But Love
TTITLE9=So Mistreated
TTITLE10=Tormented
TTITLE11=Alley Batting
TTITLE12=I Stumbled Over You
TTITLE13=Take Me
TTITLE14=Let's Have a Ball
TTITLE15=Forgive Me
TTITLE16=Did You Ever Love a Woman
TTITLE17=Again
TTITLE18=My Baby's Gone
TTITLE19=Repentance Blues
EXTD=
EXTT0=
EXTT1=
EXTT2=
EXTT3=
EXTT4=
EXTT5=
EXTT6=
EXTT7=
EXTT8=
EXTT9=
EXTT10=
EXTT11=
EXTT12=
EXTT13=
EXTT14=
EXTT15=
EXTT16=
EXTT17=
EXTT18=
EXTT19=
PLAYORDER=
